Simulation
nRows=31
nColumns=15
endheader
time  TH_x TH_y TH_z SC_y  SC_z  SC_x  AC_y  AC_z  AC_x  GH_y  GH_z  GH_yy  EL_x  PS_y
8.073123595505619  0.000000  0.000000  0.000000  -23.853508787512844  5.822028349363095  5.21112717466965  58.73788389354881  5.703433588163952  3.426776527223938  -121.51337583635363  3.3447470972757616  177.14408836515582  16.764183208388665  120.000000
8.113288389513109  0.000000  0.000000  0.000000  -23.587422594723698  5.878958924907816  5.1688331740581885  58.69222729875875  5.400294753187589  3.4801031709088845  -114.39434286240737  2.6084130476430265  169.58326357047  16.277832017868334  120.000000
8.153453183520599  0.000000  0.000000  0.000000  -23.29552751576884  5.961929632707926  5.156456289974944  58.65581764146326  5.1474857854169445  3.563131877697365  -100.75251792185993  1.782101658291412  155.30711026510215  15.733672243877892  120.000000
8.19361797752809  0.000000  0.000000  0.000000  -22.981334515937434  6.081480436784152  5.1955973231499  58.63492814653932  4.9686610523328545  3.681726603217215  -62.1677235599519  1.1063520844982426  115.89185078029483  15.151971708959916  120.000000
8.23378277153558  0.000000  0.000000  0.000000  -22.652960835926194  6.248927491212957  5.305890999672294  58.63412698784855  4.8832321634072215  3.8412993111971323  -2.3916620329234375  1.5003130356056975  55.089707738391866  14.55577142694071  120.000000
8.273947565543072  0.000000  0.000000  0.000000  -22.322725112813437  6.473317135132695  5.5028333803909035  58.654982115395114  4.903414427654771  4.046628799729684  20.482081216366822  2.818244362400175  31.000696723787154  13.967836377002737  120.000000
8.314112359550561  0.000000  0.000000  0.000000  -22.005295221270035  6.759423635601602  5.79534456957456  58.698614118599565  5.033137708259804  4.302835085534406  28.546927675069494  4.505650784046999  21.544464189401182  13.408487578879003  120.000000
8.354277153558053  0.000000  0.000000  0.000000  -21.715432892641974  7.106801761355185  6.185210488491691  58.76620987511609  5.266718394417524  4.61721348477155  32.05964268838582  6.443820351815762  16.484930714389183  12.893790917400537  120.000000
8.394441947565543  0.000000  0.000000  0.000000  -21.465300713719916  7.509537663086454  6.668617110129845  58.859104153637574  5.589872621032956  4.997530173612682  33.69484156132351  8.592162445701883  13.175447478609858  12.434174625412032  120.000000
8.434606741573035  0.000000  0.000000  0.000000  -21.26424582465715  7.958946146865308  7.2380756685272045  58.979002565208795  5.9830995258025546  5.449392798049813  34.39137013508945  10.920815313595941  10.7099442721257  12.033858659293632  120.000000
8.474771535580524  0.000000  0.000000  0.000000  -21.11868568961958  8.44568451218656  7.884271426964786  59.1263177837344  6.424792284317467  5.9761119740278525  34.5563179479368  13.399709206641248  8.716232524832114  11.691695050149551  120.000000
8.514936329588014  0.000000  0.000000  0.000000  -21.031973203642192  8.95946382967061  8.596990714112257  59.300478578708116  6.893560199672807  6.577841930589974  34.39736459027697  15.997727047224101  7.020626220416384  11.402789383854333  120.000000
8.555101123595506  0.000000  0.000000  0.000000  -21.004920582031293  9.489946446842024  9.365430153584867  59.500641558204364  7.369822798836373  7.251203392543062  34.035098630253465  18.683995418376792  5.532959687199846  11.160562387687456  120.000000
8.595265917602996  0.000000  0.000000  0.000000  -21.03656349080639  10.027628476959014  10.178797772779031  59.724861072105384  7.836875715476698  7.989624468800576  33.54412539269514  21.42839176793757  4.2037200674662625  10.95841535517301  120.000000
8.635430711610487  0.000000  0.000000  0.000000  -21.12551836570947  10.563939361036491  11.02674681470249  59.97012573658464  8.281638926827386  8.783272056918273  32.972527018056205  24.202321718707946  3.0033375145370385  10.790391469252464  120.000000
8.675595505617977  0.000000  0.000000  0.000000  -21.270511613018876  11.091689740391686  11.89928187500704  60.232068686521906  8.69476571074145  9.619347034639228  32.35077002731617  26.97855547444824  1.9131695471814085  10.651519820473501  120.000000
8.715760299625469  0.000000  0.000000  0.000000  -21.47094036388988  11.605144055721148  12.786553670390798  60.50463652734902  9.07015086689716  10.482481719363692  31.697583711853746  29.73113732187576  0.9202383862220238  10.537786100291473  120.000000
8.755925093632959  0.000000  0.000000  0.000000  -21.72620135668567  12.099870080410136  13.678863028408415  60.78042376193941  9.404562706075707  11.355602495374223  31.02481335112254  32.435589497348076  0.013493170411485162  10.446028169009963  120.000000
8.79608988764045  0.000000  0.000000  0.000000  -22.034337205780616  12.57235360789984  14.566623580320826  61.05182323208468  9.697185381858482  12.221344133543555  30.34111404810666  35.06916067315975  -0.8183074729269934  10.373938887447691  120.000000
8.83625468164794  0.000000  0.000000  0.000000  -22.391107588629534  13.019614225689978  15.440319618546136  61.3121307284719  9.94888446034657  13.063504444478921  29.65465691980997  37.61090479042411  -1.5875773631755328  10.32018415005903  120.000000
8.87641947565543  0.000000  0.000000  0.000000  -22.789720039618263  13.438966857599224  16.29041746682673  61.556116647649894  10.161932715759043  13.868068948847457  28.973549988216  40.041740998668516  -2.306821003884111  10.2840968422296  120.000000
8.916584269662922  0.000000  0.000000  0.000000  -23.221683204158985  13.828203982825212  17.107650089874966  61.77983386997641  10.339846915946627  14.6236570054028  28.305508687998607  42.34461397475516  -2.987060110589005  10.264998536001201  120.000000
8.956749063670411  0.000000  0.000000  0.000000  -23.67778284565232  14.185778093114786  17.883490642821148  61.980252060390555  10.487178177478844  15.321542809384884  27.657920443315803  44.50495411782341  -3.6367248267484915  10.261700354266813  120.000000
8.996913857677903  0.000000  0.000000  0.000000  -24.148744471203187  14.51047888516966  18.61078747055651  62.15487160505438  10.609312843414887  15.955925114239927  27.03813072362169  46.51119758456038  -4.260900332653881  10.272006322530288  120.000000
9.037078651685393  0.000000  0.000000  0.000000  -24.62590692158546  14.8015180625376  19.284532840925163  62.301344513519254  10.712493097586183  16.523755032840644  26.453493983624384  48.3552897652228  -4.860842600724622  10.29249820197613  120.000000
9.077243445692885  0.000000  0.000000  0.000000  -25.101729615098822  15.058495730926603  19.90220555488503  62.417300127263395  10.80374030585683  17.024314724917335  25.91127778603844  50.032707255529985  -5.433997974837155  10.318652816369521  120.000000
9.117408239700374  0.000000  0.000000  0.000000  -25.569521400593544  15.28090497703387  20.463313938038823  62.500363767808956  10.89010887879706  17.45886756625898  25.418911641405575  51.541782492726995  -5.974937484971489  10.345358335450946  120.000000
9.157573033707866  0.000000  0.000000  0.000000  -26.022933976520363  15.46810791093226  20.9685578751492  62.54859266513769  10.977823027246824  17.8300163134851  24.984229618073908  52.882489693158156  -6.476759931312954  10.367767732436093  120.000000
9.197737827715356  0.000000  0.000000  0.000000  -26.45539156867254  15.619482141707053  21.418934788279493  62.56095322642606  11.071629867654513  18.140858128647675  24.615417689912064  54.05510374052648  -6.932537229451308  10.3821118959466  120.000000
9.237902621722846  0.000000  0.000000  0.000000  -26.859446630684538  15.73448405144013  21.81488207849557  62.537744010624245  11.174320899054234  18.39434318344843  24.320881632994492  55.058920740297516  -7.336700091140214  10.386332002548356  120.000000
9.278067415730337  0.000000  0.000000  0.000000  -27.22631745945104  15.81272827711654  22.155662326561263  62.48088895310182  11.28645312731748  18.592849100523466  24.109133584220814  55.891327669126596  -7.68603122206773  10.38036146199153  120.000000
